<?xml version="1.0" encoding="iso-8859-1"?>
<!-- Generator: Adobe Illustrator 19.0.0, SVG Export Plug-In . SVG Version: 6.00 Build 0)  -->
<svg version="1.1" id="Capa_1" xmlns="http://www.w3.org/2000/svg" xmlns:xlink="http://www.w3.org/1999/xlink" x="0px" y="0px"
	 viewBox="0 0 60.025 60.025" style="enable-background:new 0 0 60.025 60.025;" xml:space="preserve">
<g>
	<g>
		<path d="M56.612,19.525l-26-19.3c-0.4-0.3-0.8-0.3-1.2,0l-25.3,18.8h-0.1v0.1l-0.6,0.4c-0.3,0.2-0.4,0.5-0.4,0.8v3.7
			c0,0.6,0.4,1,1,1h3v25c0,0.6,0.4,1,1,1h23.6l9.7,8.7c0.2,0.2,0.5,0.3,0.7,0.3c0.1,0,0.3,0,0.4-0.1c0.4-0.1,0.6-0.5,0.6-0.9v-8h9
			c0.6,0,1-0.4,1-1v-25h3c0.6,0,1-0.4,1-1v-3.7C57.012,20.025,56.913,19.725,56.612,19.525z M51.012,49.025h-9c-0.6,0-1,0.4-1,1v6.8
			l-8.3-7.5c-0.2-0.2-0.5-0.3-0.7-0.3h-23v-24h42V49.025z M55.012,23.025h-3h-44h-3v-2h40v-2h-37.6l22.6-16.8l25,18.6V23.025z"/>
		<rect x="28.012" y="9.025" width="4" height="2"/>
		<rect x="25.012" y="13.025" width="10" height="2"/>
		<rect x="15.012" y="28.025" width="2" height="2"/>
		<rect x="19.012" y="28.025" width="2" height="2"/>
		<rect x="23.012" y="28.025" width="2" height="2"/>
		<rect x="27.012" y="28.025" width="2" height="2"/>
		<rect x="31.012" y="28.025" width="2" height="2"/>
		<rect x="35.012" y="28.025" width="2" height="2"/>
		<rect x="39.012" y="28.025" width="2" height="2"/>
		<rect x="43.012" y="28.025" width="2" height="2"/>
		<rect x="15.012" y="44.025" width="2" height="2"/>
		<rect x="19.012" y="44.025" width="2" height="2"/>
		<rect x="23.012" y="44.025" width="2" height="2"/>
		<rect x="27.012" y="44.025" width="2" height="2"/>
		<rect x="31.012" y="44.025" width="2" height="2"/>
		<rect x="35.012" y="44.025" width="2" height="2"/>
		<rect x="39.012" y="44.025" width="2" height="2"/>
		<rect x="43.012" y="44.025" width="2" height="2"/>
		<rect x="14.012" y="33.025" width="19" height="2"/>
		<rect x="14.012" y="39.025" width="32" height="2"/>
		<rect x="36.012" y="33.025" width="4" height="2"/>
	</g>
</g>
<g>
</g>
<g>
</g>
<g>
</g>
<g>
</g>
<g>
</g>
<g>
</g>
<g>
</g>
<g>
</g>
<g>
</g>
<g>
</g>
<g>
</g>
<g>
</g>
<g>
</g>
<g>
</g>
<g>
</g>
</svg>
