<?xml version="1.0" encoding="iso-8859-1"?>
<!-- Generator: Adobe Illustrator 18.0.0, SVG Export Plug-In . SVG Version: 6.00 Build 0)  -->
<!DOCTYPE svg PUBLIC "-//W3C//DTD SVG 1.1//EN" "http://www.w3.org/Graphics/SVG/1.1/DTD/svg11.dtd">
<svg version="1.1" id="Capa_1" xmlns="http://www.w3.org/2000/svg" xmlns:xlink="http://www.w3.org/1999/xlink" x="0px" y="0px"
	 viewBox="0 0 458.056 458.056" style="enable-background:new 0 0 458.056 458.056;" xml:space="preserve">
<g>
	<path d="M191.921,270.127c-1.164-26.798-10.697-56.958-26.843-84.925c-14.052-24.339-31.728-44.915-51.116-59.503
		c-17.4-13.092-35.016-20.303-49.602-20.303c-6.565,0-12.191,1.406-17.201,4.299c-14.134,8.161-21.574,28.189-20.412,54.949
		c1.164,26.798,10.697,56.958,26.843,84.924c14.053,24.339,31.728,44.915,51.115,59.502c17.401,13.092,35.018,20.303,49.604,20.304
		c0,0,0.006,0,0.006,0c6.557,0,12.181-1.406,17.193-4.299C185.643,316.916,193.083,296.887,191.921,270.127z M164.01,312.085
		c-2.669,1.541-5.84,2.29-9.694,2.29h-0.004c-11.355-0.001-25.769-6.142-40.587-17.291C95.935,283.7,79.633,264.676,66.58,242.069
		c-14.962-25.916-23.787-53.643-24.848-78.075c-0.884-20.366,4.069-36.194,12.926-41.308c2.668-1.541,5.841-2.289,9.701-2.289
		c11.353,0,25.766,6.14,40.583,17.289c17.79,13.386,34.092,32.41,47.144,55.017c14.962,25.916,23.786,53.643,24.847,78.076
		C177.819,291.144,172.866,306.972,164.01,312.085z"/>
	<path d="M61.454,172.408c4.134-0.252,7.282-3.807,7.031-7.942c-0.813-13.35,1.451-19.859,2.101-20.871
		c2.262-3.47,1.283-8.117-2.187-10.378c-3.471-2.263-8.118-1.283-10.379,2.187c-3.626,5.563-5.311,16.768-4.508,29.974
		c0.242,3.979,3.545,7.045,7.479,7.045C61.145,172.422,61.3,172.417,61.454,172.408z"/>
	<path d="M129.718,275.827c-14.955-11.251-28.821-27.524-40.099-47.059c-7.365-12.756-12.938-25.718-16.566-38.525
		c-1.129-3.985-5.277-6.3-9.26-5.172c-3.985,1.129-6.301,5.275-5.172,9.26c3.965,13.999,10.024,28.108,18.008,41.937
		c12.278,21.267,27.518,39.091,44.071,51.545c1.351,1.017,2.934,1.507,4.503,1.507c2.276,0,4.525-1.032,5.999-2.991
		C133.692,283.019,133.028,278.317,129.718,275.827z"/>
	<path d="M154.316,287.772c-4.142,0-7.5,3.358-7.5,7.5s3.358,7.5,7.5,7.5h0.048c4.142,0,7.476-3.358,7.476-7.5
		S158.458,287.772,154.316,287.772z"/>
	<path d="M445.803,334.135c-0.152-0.088-0.308-0.163-0.461-0.247L270.307,234.5c-2.089-29.744-12.699-62.471-30.14-92.673
		c-19.812-34.313-46.327-62.148-74.661-78.377c-29.614-16.963-57.884-19.398-79.599-6.858c0,0-51.96,30.014-52.05,30.066
		C12.14,99.195,0.117,124.896,0.001,159.025c-0.11,32.652,10.74,69.532,30.551,103.846c19.811,34.313,46.325,62.149,74.658,78.38
		c17.139,9.818,33.826,14.771,49.054,14.771c11.085,0,21.397-2.625,30.546-7.907c0.075-0.043,55.957-32.517,57.798-33.904
		l160.904,91.436c0.216,0.134,0.426,0.274,0.648,0.402c3.838,2.216,8.047,3.325,12.258,3.325c4.208,0,8.417-1.107,12.255-3.322
		l0.159-0.091c18.026-10.399,29.224-29.788,29.224-50.598C458.056,346.502,453.475,338.567,445.803,334.135z M93.41,69.58
		c16.896-9.757,39.852-7.313,64.641,6.885c26.07,14.933,50.619,40.809,69.126,72.862c14.665,25.396,24.157,52.552,27.336,77.748
		c-5.591-1.011-11.356-0.032-16.463,2.912l-0.189,0.108c-8.841,5.099-16.034,12.364-21.075,20.897
		c-3.891-25.881-13.73-53.215-28.67-79.091c-19.811-34.314-46.325-62.15-74.657-78.38c-12.898-7.388-25.539-12.019-37.496-13.859
		L93.41,69.58z M112.665,328.235c-26.068-14.933-50.617-40.811-69.124-72.864c-18.506-32.054-28.643-66.252-28.541-96.295
		c0.097-28.566,9.457-49.671,26.357-59.428c6.807-3.93,14.595-5.88,23.091-5.88c12.598,0,26.75,4.289,41.553,12.769
		c26.068,14.934,50.617,40.811,69.123,72.865s28.643,66.252,28.541,96.295c-0.097,28.565-9.457,49.671-26.356,59.428
		C160.411,344.88,137.452,342.435,112.665,328.235z M211.934,315.113c1.966-5.061,3.508-10.526,4.621-16.354
		c1.745,1.593,3.739,2.958,5.956,4.031l5.42,3.08L211.934,315.113z M421.331,392.97l-0.159,0.091
		c-4.291,2.478-8.081,0.824-9.511-0.002c-1.43-0.826-4.755-3.281-4.755-8.238c0-7.613,2.012-15.122,5.82-21.713
		c2.072-3.586,0.843-8.174-2.744-10.246c-3.586-2.071-8.174-0.843-10.246,2.744c-4.626,8.01-7.275,17.026-7.747,26.243
		c-35.864-20.368-163.717-92.979-163.894-93.091c-2.311-1.469-4.459-4.188-4.459-8.063c0-15.471,8.321-29.881,21.688-37.589
		l0.188-0.107c2.645-1.525,5.725-1.706,8.492-0.511l164.932,93.657c-1.798,2.336-2.119,5.617-0.552,8.328
		c2.073,3.587,6.661,4.813,10.246,2.741l0.158-0.091c4.292-2.476,8.081-0.824,9.512,0.002c1.43,0.826,4.755,3.281,4.755,8.237
		C443.056,370.829,434.733,385.238,421.331,392.97z"/>
</g>
<g>
</g>
<g>
</g>
<g>
</g>
<g>
</g>
<g>
</g>
<g>
</g>
<g>
</g>
<g>
</g>
<g>
</g>
<g>
</g>
<g>
</g>
<g>
</g>
<g>
</g>
<g>
</g>
<g>
</g>
</svg>
